<?xml version="1.0" standalone="no"?>
<!DOCTYPE svg PUBLIC "-//W3C//DTD SVG 20010904//EN"
 "http://www.w3.org/TR/2001/REC-SVG-20010904/DTD/svg10.dtd">
<svg version="1.0" xmlns="http://www.w3.org/2000/svg"
 width="512.000000pt" height="512.000000pt" viewBox="0 0 512.000000 512.000000"
 preserveAspectRatio="xMidYMid meet">

<g transform="translate(0.000000,512.000000) scale(0.100000,-0.100000)"
fill="#000000" stroke="none">
<path d="M345 5106 c-84 -21 -147 -57 -211 -121 -65 -65 -105 -136 -123 -223
-16 -76 -16 -4329 0 -4404 37 -172 175 -310 347 -347 75 -16 4328 -16 4404 0
170 36 311 178 347 347 16 76 16 4329 0 4404 -37 172 -176 311 -347 347 -81
17 -4349 14 -4417 -3z m4395 -306 c26 -13 47 -34 60 -60 20 -39 20 -54 20
-2180 0 -2126 0 -2141 -20 -2180 -13 -26 -34 -47 -60 -60 -39 -20 -54 -20
-2181 -20 l-2141 0 -40 22 c-24 14 -48 38 -59 60 -18 36 -19 95 -19 2180 1
2044 2 2145 19 2177 10 18 35 44 57 57 l39 24 2143 0 c2128 0 2143 0 2182 -20z"/>
<path d="M1125 4506 c-42 -19 -75 -58 -85 -100 -18 -79 -14 -84 328 -434 176
-180 500 -505 719 -724 430 -428 430 -428 511 -406 30 8 106 78 414 386 427
428 411 405 368 517 -54 144 -63 186 -64 310 0 91 4 136 18 185 31 104 32 168
4 210 -50 75 29 70 -1138 70 -849 -1 -1051 -3 -1075 -14z m1891 -443 c1 -138
4 -171 27 -258 l27 -100 -252 -252 c-139 -139 -255 -253 -258 -253 -3 0 -232
230 -509 510 l-503 510 734 0 733 0 1 -157z"/>
<path d="M3965 4506 c-84 -21 -147 -57 -211 -121 -177 -176 -177 -453 1 -630
258 -259 695 -118 757 244 24 141 -22 281 -127 387 -112 113 -269 158 -420
120z m175 -306 c45 -23 80 -80 80 -130 0 -76 -74 -150 -151 -150 -46 0 -108
39 -130 82 -37 72 -14 151 57 194 48 29 92 30 144 4z"/>
<path d="M712 4080 c-41 -9 -80 -44 -98 -87 -21 -48 -21 -2098 0 -2146 17 -41
45 -66 91 -81 39 -14 66 -11 175 20 48 14 96 18 185 18 124 -1 166 -10 310
-64 112 -43 89 -59 517 368 308 308 378 384 386 415 23 84 50 54 -720 821
-392 389 -721 714 -732 721 -29 18 -75 24 -114 15z m1208 -1519 c0 -4 -114
-120 -253 -259 l-252 -252 -100 27 c-87 23 -120 26 -257 27 l-158 1 0 733 0
734 510 -503 c280 -276 510 -505 510 -508z"/>
<path d="M3615 3386 c-16 -8 -196 -180 -398 -383 -308 -309 -370 -375 -377
-406 -19 -87 -49 -53 731 -833 615 -615 728 -724 761 -732 74 -19 145 16 174
85 21 48 21 2108 0 2156 -17 41 -45 66 -91 81 -39 14 -65 11 -170 -18 -147
-41 -312 -29 -471 35 -82 32 -114 35 -159 15z m215 -348 c69 -18 114 -22 238
-23 l152 0 0 -740 0 -740 -512 512 -513 513 255 255 c204 204 259 255 275 250
11 -3 58 -15 105 -27z"/>
<path d="M2521 2279 c-28 -6 -108 -81 -412 -386 -428 -429 -412 -406 -369
-518 83 -219 88 -346 26 -572 -24 -87 16 -171 92 -193 25 -8 364 -10 1084 -8
1039 3 1047 3 1074 24 49 36 66 68 66 123 0 28 -6 61 -14 73 -20 31 -1393
1413 -1427 1437 -33 23 -76 30 -120 20z m548 -869 l503 -510 -734 0 -733 0 -1
157 c0 138 -4 171 -27 258 l-27 100 252 252 c139 139 255 253 258 253 3 0 232
-229 509 -510z"/>
<path d="M955 1496 c-84 -21 -147 -57 -211 -121 -177 -176 -177 -453 1 -630
258 -259 695 -118 757 244 24 141 -22 281 -127 387 -112 113 -269 158 -420
120z m175 -306 c45 -23 80 -80 80 -130 0 -76 -74 -150 -151 -150 -46 0 -108
39 -130 82 -37 72 -14 151 57 194 48 29 92 30 144 4z"/>
</g>
</svg>
